<svg width="128" height="128" viewBox="0 0 128 128" fill="none" xmlns="http://www.w3.org/2000/svg">
<path d="M15.518 8.0592H8.05927V15.518H15.518V8.0592Z" fill="white"/>
<path d="M22.9768 8.0592H15.518V15.518H22.9768V8.0592Z" fill="white"/>
<path d="M30.4356 8.0592H22.9768V15.518H30.4356V8.0592Z" fill="white"/>
<path d="M37.8943 8.0592H30.4356V15.518H37.8943V8.0592Z" fill="white"/>
<path d="M45.3531 8.0592H37.8943V15.518H45.3531V8.0592Z" fill="white"/>
<path d="M52.8119 8.0592H45.3531V15.518H52.8119V8.0592Z" fill="white"/>
<path d="M60.2706 8.0592H52.8119V15.518H60.2706V8.0592Z" fill="white"/>
<path d="M15.518 15.518H8.05927V22.9767H15.518V15.518Z" fill="white"/>
<path d="M60.2706 15.518H52.8119V22.9767H60.2706V15.518Z" fill="white"/>
<path d="M15.518 22.9767H8.05927V30.4355H15.518V22.9767Z" fill="white"/>
<path d="M30.4356 22.9767H22.9768V30.4355H30.4356V22.9767Z" fill="white"/>
<path d="M37.8943 22.9767H30.4356V30.4355H37.8943V22.9767Z" fill="white"/>
<path d="M45.3531 22.9767H37.8943V30.4355H45.3531V22.9767Z" fill="white"/>
<path d="M60.2706 22.9767H52.8119V30.4355H60.2706V22.9767Z" fill="white"/>
<path d="M15.518 30.4355H8.05927V37.8943H15.518V30.4355Z" fill="white"/>
<path d="M30.4356 30.4355H22.9768V37.8943H30.4356V30.4355Z" fill="white"/>
<path d="M37.8943 30.4355H30.4356V37.8943H37.8943V30.4355Z" fill="white"/>
<path d="M45.3531 30.4355H37.8943V37.8943H45.3531V30.4355Z" fill="white"/>
<path d="M60.2706 30.4355H52.8119V37.8943H60.2706V30.4355Z" fill="white"/>
<path d="M15.518 37.8943H8.05927V45.353H15.518V37.8943Z" fill="white"/>
<path d="M30.4356 37.8943H22.9768V45.353H30.4356V37.8943Z" fill="white"/>
<path d="M37.8943 37.8943H30.4356V45.353H37.8943V37.8943Z" fill="white"/>
<path d="M45.3531 37.8943H37.8943V45.353H45.3531V37.8943Z" fill="white"/>
<path d="M60.2706 37.8943H52.8119V45.353H60.2706V37.8943Z" fill="white"/>
<path d="M15.518 45.353H8.05927V52.8118H15.518V45.353Z" fill="white"/>
<path d="M60.2706 45.353H52.8119V52.8118H60.2706V45.353Z" fill="white"/>
<path d="M15.518 52.8118H8.05927V60.2706H15.518V52.8118Z" fill="white"/>
<path d="M22.9768 52.8118H15.518V60.2706H22.9768V52.8118Z" fill="white"/>
<path d="M30.4356 52.8118H22.9768V60.2706H30.4356V52.8118Z" fill="white"/>
<path d="M37.8943 52.8118H30.4356V60.2706H37.8943V52.8118Z" fill="white"/>
<path d="M45.3531 52.8118H37.8943V60.2706H45.3531V52.8118Z" fill="white"/>
<path d="M52.8119 52.8118H45.3531V60.2706H52.8119V52.8118Z" fill="white"/>
<path d="M52.8119 52.8118H45.3531V60.2706H52.8119V52.8118Z" fill="white"/>
<path d="M60.2706 52.8118H52.8119V60.2706H60.2706V52.8118Z" fill="white"/>
<path d="M75.1882 67.7293H67.7294V75.1881H75.1882V67.7293Z" fill="white"/>
<path d="M75.1882 82.6469H67.7294V90.1056H75.1882V82.6469Z" fill="white"/>
<path d="M105.023 82.6469H97.5645V90.1056H105.023V82.6469Z" fill="white"/>
<path d="M82.6469 67.7293H75.1882V75.1881H82.6469V67.7293Z" fill="white"/>
<path d="M82.6469 97.5644H75.1882V105.023H82.6469V97.5644Z" fill="white"/>
<path d="M90.1057 67.7293H82.6469V75.1881H90.1057V67.7293Z" fill="white"/>
<path d="M90.1057 97.5644H82.6469V105.023H90.1057V97.5644Z" fill="white"/>
<path d="M97.5645 67.7293H90.1057V75.1881H97.5645V67.7293Z" fill="white"/>
<path d="M97.5645 97.5644H90.1057V105.023H97.5645V97.5644Z" fill="white"/>
<path d="M105.023 67.7293H97.5645V75.1881H105.023V67.7293Z" fill="white"/>
<path d="M105.023 97.5644H97.5645V105.023H105.023V97.5644Z" fill="white"/>
<path d="M75.1882 75.1881H67.7294V82.6469H75.1882V75.1881Z" fill="white"/>
<path d="M105.023 75.1881H97.5645V82.6469H105.023V75.1881Z" fill="white"/>
<path d="M75.1882 90.1056H67.7294V97.5644H75.1882V90.1056Z" fill="white"/>
<path d="M75.1882 97.5644H67.7294V105.023H75.1882V97.5644Z" fill="white"/>
<path d="M105.023 90.1056H97.5645V97.5644H105.023V90.1056Z" fill="white"/>
<path d="M90.1057 82.6469H82.6469V90.1056H90.1057V82.6469Z" fill="white"/>
<path d="M75.1882 8.0592H67.7294V15.518H75.1882V8.0592Z" fill="white"/>
<path d="M82.6469 8.0592H75.1882V15.518H82.6469V8.0592Z" fill="white"/>
<path d="M90.1057 8.0592H82.6469V15.518H90.1057V8.0592Z" fill="white"/>
<path d="M97.5645 8.0592H90.1057V15.518H97.5645V8.0592Z" fill="white"/>
<path d="M105.023 8.0592H97.5645V15.518H105.023V8.0592Z" fill="white"/>
<path d="M112.482 8.0592H105.023V15.518H112.482V8.0592Z" fill="white"/>
<path d="M119.941 8.0592H112.482V15.518H119.941V8.0592Z" fill="white"/>
<path d="M75.1882 15.518H67.7294V22.9767H75.1882V15.518Z" fill="white"/>
<path d="M119.941 15.518H112.482V22.9767H119.941V15.518Z" fill="white"/>
<path d="M75.1882 22.9767H67.7294V30.4355H75.1882V22.9767Z" fill="white"/>
<path d="M90.1057 22.9767H82.6469V30.4355H90.1057V22.9767Z" fill="white"/>
<path d="M97.5645 22.9767H90.1057V30.4355H97.5645V22.9767Z" fill="white"/>
<path d="M105.023 22.9767H97.5645V30.4355H105.023V22.9767Z" fill="white"/>
<path d="M119.941 22.9767H112.482V30.4355H119.941V22.9767Z" fill="white"/>
<path d="M75.1882 30.4355H67.7294V37.8943H75.1882V30.4355Z" fill="white"/>
<path d="M90.1057 30.4355H82.6469V37.8943H90.1057V30.4355Z" fill="white"/>
<path d="M97.5645 30.4355H90.1057V37.8943H97.5645V30.4355Z" fill="white"/>
<path d="M105.023 30.4355H97.5645V37.8943H105.023V30.4355Z" fill="white"/>
<path d="M119.941 30.4355H112.482V37.8943H119.941V30.4355Z" fill="white"/>
<path d="M75.1882 37.8943H67.7294V45.353H75.1882V37.8943Z" fill="white"/>
<path d="M90.1057 37.8943H82.6469V45.353H90.1057V37.8943Z" fill="white"/>
<path d="M97.5645 37.8943H90.1057V45.353H97.5645V37.8943Z" fill="white"/>
<path d="M105.023 37.8943H97.5645V45.353H105.023V37.8943Z" fill="white"/>
<path d="M119.941 37.8943H112.482V45.353H119.941V37.8943Z" fill="white"/>
<path d="M75.1882 45.353H67.7294V52.8118H75.1882V45.353Z" fill="white"/>
<path d="M119.941 45.353H112.482V52.8118H119.941V45.353Z" fill="white"/>
<path d="M75.1882 52.8118H67.7294V60.2706H75.1882V52.8118Z" fill="white"/>
<path d="M82.6469 52.8118H75.1882V60.2706H82.6469V52.8118Z" fill="white"/>
<path d="M90.1057 52.8118H82.6469V60.2706H90.1057V52.8118Z" fill="white"/>
<path d="M97.5645 52.8118H90.1057V60.2706H97.5645V52.8118Z" fill="white"/>
<path d="M105.023 52.8118H97.5645V60.2706H105.023V52.8118Z" fill="white"/>
<path d="M112.482 52.8118H105.023V60.2706H112.482V52.8118Z" fill="white"/>
<path d="M119.941 52.8118H112.482V60.2706H119.941V52.8118Z" fill="white"/>
<path d="M15.518 67.7293H8.05927V75.1881H15.518V67.7293Z" fill="white"/>
<path d="M22.9768 67.7293H15.518V75.1881H22.9768V67.7293Z" fill="white"/>
<path d="M30.4356 67.7293H22.9768V75.1881H30.4356V67.7293Z" fill="white"/>
<path d="M37.8943 67.7293H30.4356V75.1881H37.8943V67.7293Z" fill="white"/>
<path d="M45.3531 67.7293H37.8943V75.1881H45.3531V67.7293Z" fill="white"/>
<path d="M52.8119 67.7293H45.3531V75.1881H52.8119V67.7293Z" fill="white"/>
<path d="M60.2706 67.7293H52.8119V75.1881H60.2706V67.7293Z" fill="white"/>
<path d="M15.518 75.1881H8.05927V82.6469H15.518V75.1881Z" fill="white"/>
<path d="M60.2706 75.1881H52.8119V82.6469H60.2706V75.1881Z" fill="white"/>
<path d="M15.518 82.6469H8.05927V90.1056H15.518V82.6469Z" fill="white"/>
<path d="M30.4356 82.6469H22.9768V90.1056H30.4356V82.6469Z" fill="white"/>
<path d="M37.8943 82.6469H30.4356V90.1056H37.8943V82.6469Z" fill="white"/>
<path d="M45.3531 82.6469H37.8943V90.1056H45.3531V82.6469Z" fill="white"/>
<path d="M60.2706 82.6469H52.8119V90.1056H60.2706V82.6469Z" fill="white"/>
<path d="M15.518 90.1056H8.05927V97.5644H15.518V90.1056Z" fill="white"/>
<path d="M30.4356 90.1056H22.9768V97.5644H30.4356V90.1056Z" fill="white"/>
<path d="M37.8943 90.1056H30.4356V97.5644H37.8943V90.1056Z" fill="white"/>
<path d="M45.3531 90.1056H37.8943V97.5644H45.3531V90.1056Z" fill="white"/>
<path d="M60.2706 90.1056H52.8119V97.5644H60.2706V90.1056Z" fill="white"/>
<path d="M15.518 97.5644H8.05927V105.023H15.518V97.5644Z" fill="white"/>
<path d="M30.4356 97.5644H22.9768V105.023H30.4356V97.5644Z" fill="white"/>
<path d="M37.8943 97.5644H30.4356V105.023H37.8943V97.5644Z" fill="white"/>
<path d="M45.3531 97.5644H37.8943V105.023H45.3531V97.5644Z" fill="white"/>
<path d="M60.2706 97.5644H52.8119V105.023H60.2706V97.5644Z" fill="white"/>
<path d="M15.518 105.023H8.05927V112.482H15.518V105.023Z" fill="white"/>
<path d="M60.2706 105.023H52.8119V112.482H60.2706V105.023Z" fill="white"/>
<path d="M15.518 112.482H8.05927V119.941H15.518V112.482Z" fill="white"/>
<path d="M22.9768 112.482H15.518V119.941H22.9768V112.482Z" fill="white"/>
<path d="M30.4356 112.482H22.9768V119.941H30.4356V112.482Z" fill="white"/>
<path d="M37.8943 112.482H30.4356V119.941H37.8943V112.482Z" fill="white"/>
<path d="M45.3531 112.482H37.8943V119.941H45.3531V112.482Z" fill="white"/>
<path d="M52.8119 112.482H45.3531V119.941H52.8119V112.482Z" fill="white"/>
<path d="M60.2706 112.482H52.8119V119.941H60.2706V112.482Z" fill="white"/>
</svg>
